<svg xmlns="http://www.w3.org/2000/svg" version="1.0" width="40" height="40"
    viewBox="0 0 289.000000 289.000000" preserveAspectRatio="xMidYMid meet">

    <g transform="translate(0.000000,289.000000) scale(0.100000,-0.100000)" fill="#000"
        stroke="none">
        <path
            d="M1585 2860 c-477 -101 -811 -472 -866 -966 -21 -185 16 -380 107 -573 24 -51 44 -95 44 -96 0 -2 -21 -8 -47 -14 -45 -11 -74 -38 -425 -389 -316 -317 -378 -383 -387 -416 -36 -134 117 -274 246 -226 42 16 771 747 784 788 l11 32 61 -45 c385 -280 781 -317 1200 -111 48 24 87 40 87 37 0 -16 -78 -122 -129 -174 -77 -81 -160 -138 -282 -197 -206 -98 -523 -160 -815 -160 -56 0 -127 -5 -156 -11 -156 -34 -186 -239 -46 -310 41 -21 51 -22 224 -16 221 8 341 21 502 53 579 116 947 412 1096 882 67 214 90 424 83 782 -5 280 -12 325 -86 502 -76 182 -257 389 -429 492 -231 138 -524 189 -777 136z m421 -364 c223 -71 397 -247 476 -482 20 -59 23 -88 23 -209 -1 -126 -4 -148 -28 -220 -78 -223 -246 -391 -464 -462 -114 -38 -298 -44 -407 -14 -317 87 -536 370 -536 693 0 119 22 213 77 327 80 167 241 304 428 365 131 42 300 43 431 2z" />
    </g>
</svg>